<svg width="320" height="70" viewBox="0 0 320 70" fill="none" xmlns="http://www.w3.org/2000/svg">
<g clip-path="url(#clip0)">
<path d="M52.7873 40.2711C52.7873 27.5483 42.5008 17.2346 29.8116 17.2346C17.1224 17.2346 6.83594 27.5483 6.83594 40.2711C6.83594 52.994 17.1224 63.3077 29.8116 63.3077C42.5008 63.3077 52.7873 52.994 52.7873 40.2711V40.2711Z" fill="#89C8FD"/>
<path d="M29.8116 17.2346C28.6324 17.2346 27.4735 17.3238 26.3424 17.4957C37.3851 19.1727 45.8483 28.7307 45.8483 40.2711C45.8483 51.8116 37.3851 61.3696 26.3424 63.0466C27.4735 63.2185 28.6324 63.3077 29.8116 63.3077C42.5009 63.3077 52.7873 52.994 52.7873 40.2711C52.7873 27.5483 42.5009 17.2346 29.8116 17.2346V17.2346Z" fill="#60B6FF"/>
<path d="M26.8252 26.1875C23.286 28.4055 20.6312 31.9537 22.6222 35.9464C24.6132 39.9384 29.0373 38.3859 33.1298 37.8316C37.2223 37.2772 34.1253 49.9194 36.5584 53.0244C38.9916 56.1295 45.8489 49.9194 45.1856 45.9268C44.2029 40.0159 43.8585 37.9421 51.8218 33.7284L51.8432 33.7204C49.159 24.6313 41.0338 17.8872 31.2504 17.281L31.2494 17.3158C31.2494 17.3158 30.3644 23.9696 26.8252 26.1875Z" fill="#BAEB6C"/>
<path d="M44.2066 22.3177C44.2088 22.3192 44.211 22.3213 44.2131 22.3227C44.211 22.3213 44.2088 22.3199 44.2066 22.3177Z" fill="#BAEB6C"/>
<path d="M47.0163 25.0051C47.0163 25.0059 47.0171 25.0067 47.0179 25.0067C47.0171 25.0059 47.0171 25.0059 47.0163 25.0051Z" fill="#BAEB6C"/>
<path d="M14.5483 50.6954C13.4855 49.0746 16.4287 45.2619 17.092 42.3785C17.7558 39.4952 13.7739 39.7168 12.5573 38.7186C11.3407 37.7205 9.6814 33.3957 8.46481 32.3975L8.27042 32.2443C7.34329 34.7437 6.83594 37.4481 6.83594 40.2711C6.83594 47.8857 10.5209 54.6362 16.2001 58.8302L16.207 58.3474C16.207 58.3474 17.092 54.577 14.5483 50.6954V50.6954Z" fill="#BAEB6C"/>
<path d="M45.1855 45.9268C45.1807 45.898 45.1759 45.8697 45.1711 45.8408C44.7316 47.6166 44.0864 49.3111 43.2624 50.8973C44.5692 49.3549 45.4424 47.4745 45.1855 45.9268Z" fill="#BAEB6C"/>
<path d="M31.2504 17.281L31.2493 17.3158C31.2493 17.3158 31.1756 17.8712 30.9855 18.7134C39.0423 21.7628 44.9409 29.2215 45.7527 38.1552C46.7679 36.7667 48.6249 35.4198 51.8217 33.7284L51.8431 33.7204C49.1589 24.6313 41.0338 17.8872 31.2504 17.281Z" fill="#96D629"/>
<path d="M29.7806 70C28.1533 70 26.5143 69.8665 24.8763 69.5957C17.0465 68.3028 10.1887 64.0383 5.56642 57.588C0.944154 51.1376 -0.889265 43.2731 0.404222 35.4438C0.497682 34.8766 1.03494 34.4932 1.60051 34.5866C2.16768 34.6801 2.55167 35.2158 2.45767 35.7829C1.25551 43.0637 2.96022 50.3771 7.25885 56.3757C11.5575 62.3742 17.9341 66.3396 25.216 67.5423C40.2481 70.0257 54.4946 59.8161 56.9775 44.7861C58.1796 37.5053 56.4749 30.1919 52.1763 24.1933C47.8782 18.1948 41.501 14.2294 34.2197 13.0267C33.6525 12.9333 33.2685 12.3976 33.362 11.8304C33.456 11.2633 33.9927 10.8798 34.5583 10.9733C42.3886 12.2662 49.2465 16.5307 53.8682 22.981C58.4905 29.4314 60.3239 37.2959 59.0309 45.1252C57.738 52.9545 53.473 59.8118 47.0221 64.4335C41.9203 68.0886 35.9345 70 29.7806 70V70Z" fill="#09A66D"/>
<path d="M23.4617 25.1408C12.3512 23.2555 5.45862 9.26643 5.45862 9.26643C5.45862 9.26643 16.5804 -1.66626 27.6909 0.218428C38.8014 2.10312 45.694 16.0922 45.694 16.0922C45.694 16.0922 34.5722 27.0254 23.4617 25.1408Z" fill="#49CB5C"/>
<path d="M27.6909 0.218509C25.5691 -0.141446 23.4478 -0.0330323 21.4029 0.37659C32.0493 2.76703 38.6166 16.0923 38.6166 16.0923C38.6166 16.0923 31.3364 23.2481 22.6718 24.9828C22.933 25.0415 23.1957 25.0954 23.4617 25.1408C34.5722 27.0255 45.694 16.0923 45.694 16.0923C45.694 16.0923 38.8014 2.1032 27.6909 0.218509V0.218509Z" fill="#07B128"/>
<path d="M45.0659 14.9306L34.2005 13.0978L24.0513 0.0293732C23.2417 0.0769043 22.4395 0.180511 21.648 0.328979L31.1671 12.5856L22.9741 11.2035L15.9833 2.15866C15.3275 2.45453 14.6898 2.76855 14.0751 3.09433L19.9481 10.6929L6.4007 8.40714C5.7924 8.93852 5.45862 9.26643 5.45862 9.26643C5.45862 9.26643 5.68185 9.71878 6.11017 10.4691L19.5839 12.7421L12.1114 18.5201C12.5926 19.0157 13.0972 19.5054 13.6249 19.9807L22.377 13.2137L31.0507 14.677L19.2544 23.8035C19.9866 24.1453 20.7433 24.4411 21.5236 24.6793L33.8438 15.1485L44.7161 16.9825C45.3463 16.433 45.694 16.0922 45.694 16.0922C45.694 16.0922 45.4788 15.6564 45.0659 14.9306V14.9306Z" fill="#09A66D"/>
<path d="M53.2509 11.5618C56.2315 4.50905 66.5585 2.13463 66.5585 2.13463C66.5585 2.13463 72.0534 11.1949 69.0729 18.2477C66.0928 25.3004 55.7652 27.6749 55.7652 27.6749C55.7652 27.6749 50.2703 18.6146 53.2509 11.5618Z" fill="#49CB5C"/>
<path d="M66.5585 2.13463C66.5585 2.13463 64.2103 2.67509 61.43 4.0049C62.8565 7.0266 65.1177 13.1592 62.967 18.2477C61.4081 21.937 57.8385 24.3461 54.7885 25.8046C55.3391 26.971 55.7658 27.6749 55.7658 27.6749C55.7658 27.6749 66.0928 25.3004 69.0734 18.2477C72.0535 11.1949 66.5585 2.13463 66.5585 2.13463Z" fill="#07B128"/>
<path d="M69.9172 12.4307L61.9758 15.7622L67.1898 3.29674C66.8165 2.55974 66.5586 2.13463 66.5586 2.13463C66.5586 2.13463 66.0672 2.24785 65.2677 2.49779L59.8791 15.3803L56.5375 7.15851C55.9714 7.65785 55.4373 8.20045 54.9529 8.78845L58.7394 18.1051L55.1826 26.6084C55.5297 27.2861 55.7652 27.6749 55.7652 27.6749C55.7652 27.6749 56.2993 27.552 57.1581 27.2797L60.8308 18.4998L69.914 14.6898C69.9744 13.9352 69.9712 13.1784 69.9172 12.4307V12.4307Z" fill="#09A66D"/>
</g>
<path d="M100.578 43.2109H87.0781V52.3516H102.922V58H80.0469V23.875H102.875V29.5703H87.0781V37.7031H100.578V43.2109ZM116.68 53.0078C117.93 53.0078 118.945 52.6641 119.727 51.9766C120.508 51.2891 120.914 50.375 120.945 49.2344H127.297C127.281 50.9531 126.812 52.5312 125.891 53.9688C124.969 55.3906 123.703 56.5 122.094 57.2969C120.5 58.0781 118.734 58.4688 116.797 58.4688C113.172 58.4688 110.312 57.3203 108.219 55.0234C106.125 52.7109 105.078 49.5234 105.078 45.4609V45.0156C105.078 41.1094 106.117 37.9922 108.195 35.6641C110.273 33.3359 113.125 32.1719 116.75 32.1719C119.922 32.1719 122.461 33.0781 124.367 34.8906C126.289 36.6875 127.266 39.0859 127.297 42.0859H120.945C120.914 40.7734 120.508 39.7109 119.727 38.8984C118.945 38.0703 117.914 37.6562 116.633 37.6562C115.055 37.6562 113.859 38.2344 113.047 39.3906C112.25 40.5312 111.852 42.3906 111.852 44.9688V45.6719C111.852 48.2812 112.25 50.1562 113.047 51.2969C113.844 52.4375 115.055 53.0078 116.68 53.0078ZM130.109 45.0859C130.109 42.5703 130.594 40.3281 131.562 38.3594C132.531 36.3906 133.922 34.8672 135.734 33.7891C137.562 32.7109 139.68 32.1719 142.086 32.1719C145.508 32.1719 148.297 33.2188 150.453 35.3125C152.625 37.4062 153.836 40.25 154.086 43.8438L154.133 45.5781C154.133 49.4688 153.047 52.5938 150.875 54.9531C148.703 57.2969 145.789 58.4688 142.133 58.4688C138.477 58.4688 135.555 57.2969 133.367 54.9531C131.195 52.6094 130.109 49.4219 130.109 45.3906V45.0859ZM136.883 45.5781C136.883 47.9844 137.336 49.8281 138.242 51.1094C139.148 52.375 140.445 53.0078 142.133 53.0078C143.773 53.0078 145.055 52.3828 145.977 51.1328C146.898 49.8672 147.359 47.8516 147.359 45.0859C147.359 42.7266 146.898 40.8984 145.977 39.6016C145.055 38.3047 143.758 37.6562 142.086 37.6562C140.43 37.6562 139.148 38.3047 138.242 39.6016C137.336 40.8828 136.883 42.875 136.883 45.5781Z" fill="black"/>
<path d="M165.781 45.9766V58H158.75V23.875H172.062C174.625 23.875 176.875 24.3438 178.812 25.2812C180.766 26.2188 182.266 27.5547 183.312 29.2891C184.359 31.0078 184.883 32.9688 184.883 35.1719C184.883 38.5156 183.734 41.1562 181.438 43.0938C179.156 45.0156 175.992 45.9766 171.945 45.9766H165.781ZM165.781 40.2812H172.062C173.922 40.2812 175.336 39.8438 176.305 38.9688C177.289 38.0938 177.781 36.8438 177.781 35.2188C177.781 33.5469 177.289 32.1953 176.305 31.1641C175.32 30.1328 173.961 29.6016 172.227 29.5703H165.781V40.2812ZM196.438 58H189.641V22H196.438V58ZM216.734 58C216.422 57.3906 216.195 56.6328 216.055 55.7266C214.414 57.5547 212.281 58.4688 209.656 58.4688C207.172 58.4688 205.109 57.75 203.469 56.3125C201.844 54.875 201.031 53.0625 201.031 50.875C201.031 48.1875 202.023 46.125 204.008 44.6875C206.008 43.25 208.891 42.5234 212.656 42.5078H215.773V41.0547C215.773 39.8828 215.469 38.9453 214.859 38.2422C214.266 37.5391 213.32 37.1875 212.023 37.1875C210.883 37.1875 209.984 37.4609 209.328 38.0078C208.688 38.5547 208.367 39.3047 208.367 40.2578H201.594C201.594 38.7891 202.047 37.4297 202.953 36.1797C203.859 34.9297 205.141 33.9531 206.797 33.25C208.453 32.5312 210.312 32.1719 212.375 32.1719C215.5 32.1719 217.977 32.9609 219.805 34.5391C221.648 36.1016 222.57 38.3047 222.57 41.1484V52.1406C222.586 54.5469 222.922 56.3672 223.578 57.6016V58H216.734ZM211.133 53.2891C212.133 53.2891 213.055 53.0703 213.898 52.6328C214.742 52.1797 215.367 51.5781 215.773 50.8281V46.4688H213.242C209.852 46.4688 208.047 47.6406 207.828 49.9844L207.805 50.3828C207.805 51.2266 208.102 51.9219 208.695 52.4688C209.289 53.0156 210.102 53.2891 211.133 53.2891ZM234.008 32.6406L234.219 35.5703C236.031 33.3047 238.461 32.1719 241.508 32.1719C244.195 32.1719 246.195 32.9609 247.508 34.5391C248.82 36.1172 249.492 38.4766 249.523 41.6172V58H242.75V41.7812C242.75 40.3438 242.438 39.3047 241.812 38.6641C241.188 38.0078 240.148 37.6797 238.695 37.6797C236.789 37.6797 235.359 38.4922 234.406 40.1172V58H227.633V32.6406H234.008ZM266.352 58.4688C262.633 58.4688 259.602 57.3281 257.258 55.0469C254.93 52.7656 253.766 49.7266 253.766 45.9297V45.2734C253.766 42.7266 254.258 40.4531 255.242 38.4531C256.227 36.4375 257.617 34.8906 259.414 33.8125C261.227 32.7188 263.289 32.1719 265.602 32.1719C269.07 32.1719 271.797 33.2656 273.781 35.4531C275.781 37.6406 276.781 40.7422 276.781 44.7578V47.5234H260.633C260.852 49.1797 261.508 50.5078 262.602 51.5078C263.711 52.5078 265.109 53.0078 266.797 53.0078C269.406 53.0078 271.445 52.0625 272.914 50.1719L276.242 53.8984C275.227 55.3359 273.852 56.4609 272.117 57.2734C270.383 58.0703 268.461 58.4688 266.352 58.4688ZM265.578 37.6562C264.234 37.6562 263.141 38.1094 262.297 39.0156C261.469 39.9219 260.938 41.2188 260.703 42.9062H270.125V42.3672C270.094 40.8672 269.688 39.7109 268.906 38.8984C268.125 38.0703 267.016 37.6562 265.578 37.6562ZM288.758 26.4062V32.6406H293.094V37.6094H288.758V50.2656C288.758 51.2031 288.938 51.875 289.297 52.2812C289.656 52.6875 290.344 52.8906 291.359 52.8906C292.109 52.8906 292.773 52.8359 293.352 52.7266V57.8594C292.023 58.2656 290.656 58.4688 289.25 58.4688C284.5 58.4688 282.078 56.0703 281.984 51.2734V37.6094H278.281V32.6406H281.984V26.4062H288.758ZM311.562 58C311.25 57.3906 311.023 56.6328 310.883 55.7266C309.242 57.5547 307.109 58.4688 304.484 58.4688C302 58.4688 299.938 57.75 298.297 56.3125C296.672 54.875 295.859 53.0625 295.859 50.875C295.859 48.1875 296.852 46.125 298.836 44.6875C300.836 43.25 303.719 42.5234 307.484 42.5078H310.602V41.0547C310.602 39.8828 310.297 38.9453 309.688 38.2422C309.094 37.5391 308.148 37.1875 306.852 37.1875C305.711 37.1875 304.812 37.4609 304.156 38.0078C303.516 38.5547 303.195 39.3047 303.195 40.2578H296.422C296.422 38.7891 296.875 37.4297 297.781 36.1797C298.688 34.9297 299.969 33.9531 301.625 33.25C303.281 32.5312 305.141 32.1719 307.203 32.1719C310.328 32.1719 312.805 32.9609 314.633 34.5391C316.477 36.1016 317.398 38.3047 317.398 41.1484V52.1406C317.414 54.5469 317.75 56.3672 318.406 57.6016V58H311.562ZM305.961 53.2891C306.961 53.2891 307.883 53.0703 308.727 52.6328C309.57 52.1797 310.195 51.5781 310.602 50.8281V46.4688H308.07C304.68 46.4688 302.875 47.6406 302.656 49.9844L302.633 50.3828C302.633 51.2266 302.93 51.9219 303.523 52.4688C304.117 53.0156 304.93 53.2891 305.961 53.2891Z" fill="#07B128"/>
<defs>
<clipPath id="clip0">
<rect width="70" height="70" fill="white"/>
</clipPath>
</defs>
</svg>
